<svg width="21" height="21" viewBox="0 0 21 21" fill="none" xmlns="http://www.w3.org/2000/svg">
<rect width="21" height="21" rx="10.5" fill="#5B978E"/>
<path d="M4.32356 10.34C5.95546 10.1432 6.22169 8.82108 8.34699 8.74917C10.047 8.69108 10.9429 9.58216 11.0782 10.4465C11.1915 11.17 10.3179 12.9341 6.97847 12.5999C2.80451 12.1822 1.66124 10.2162 1.47804 9.48576C1.85716 9.80863 3.0332 10.4958 4.32356 10.34Z" fill="white"/>
<path d="M16.657 10.3226C15.0223 10.1409 14.74 8.82122 12.614 8.76886C10.9133 8.72641 10.0286 9.62568 9.90408 10.4912C9.79977 11.2157 10.6953 12.9716 14.0304 12.6068C18.1989 12.1507 19.3176 10.1744 19.4917 9.44223C19.1166 9.76856 17.9492 10.4666 16.657 10.3226V10.3226Z" fill="white"/>
</svg>
