<svg width="30" height="30" viewBox="0 0 30 30" fill="none" xmlns="http://www.w3.org/2000/svg">
<path d="M22.6472 15.0304C22.6472 19.2761 19.2235 22.718 15.0001 22.718C10.7767 22.718 7.35303 19.2761 7.35303 15.0304M22.6472 15.0304C22.6472 10.7846 19.2235 7.34277 15.0001 7.34277C10.7767 7.34277 7.35303 10.7846 7.35303 15.0304M22.6472 15.0304L22.6472 28.0002M7.35303 15.0304L7.35303 2.19141" stroke="#5B978E" stroke-width="2.97143" stroke-linecap="round"/>
<path d="M14.6177 27.9997L13.8857 27.9997C7.32143 27.9997 2 22.6783 2 16.114L2 5.82324" stroke="#5B978E" stroke-width="2.97143" stroke-linecap="round"/>
<path d="M15.3823 1.99981L16.1143 1.99981C22.6786 1.99981 28 7.32123 28 13.8855L28 23.7939" stroke="#5B978E" stroke-width="2.97143" stroke-linecap="round"/>
<circle cx="15.0404" cy="14.9427" r="6.27864" fill="url(#paint0_linear_4564_39913)"/>
<defs>
<linearGradient id="paint0_linear_4564_39913" x1="11.5182" y1="10.9611" x2="16.878" y2="20.6088" gradientUnits="userSpaceOnUse">
<stop stop-color="#D9D9D9" stop-opacity="0" offset=""/>
<stop offset="0.927064" stop-color="#5B978E" stop-opacity="0.5"/>
</linearGradient>
</defs>
</svg>
