<svg width="15" height="16" viewBox="0 0 15 16" fill="none" xmlns="http://www.w3.org/2000/svg">
<path d="M14.9592 7.99987C14.9592 12.1202 11.6191 15.4604 7.49881 15.4604C3.37848 15.4604 0.0383301 12.1202 0.0383301 7.99987C0.0383301 3.87958 3.37848 0.539429 7.49881 0.539429C11.6191 0.539429 14.9592 3.87958 14.9592 7.99987Z" fill="#36BD85" fill-opacity="0.8"/>
<path d="M7.5 15.5C11.6563 15.5 15 12.1563 15 8C15 3.84372 11.6563 0.5 7.5 0.5C3.34372 0.5 0 3.84372 0 8C0 12.1563 3.34372 15.5 7.5 15.5Z" fill="#393939"/>
<path d="M10.1539 6.88071L8.63078 5.3731H6.32312L5.58474 6.10406V3.5H4.80005V8.11421V9.11929L6.32312 10.6269H8.63078L9.36927 9.89594V12.5H10.2V8.1599L10.1539 6.88071ZM8.26153 9.85025H6.73857L5.63083 8.75381V8.11421V7.24619L6.73857 6.14975H8.26153L9.36927 7.24619V8.20558V8.75381L8.26153 9.85025Z" fill="white"/>
<path d="M3.79137 9.47324V5.29999H3V9.84011L5.70006 12.5H8.4V11.7204H6.07238L3.79137 9.47324Z" fill="#66DDDD"/>
<path d="M6.6001 3.5V4.27962H8.92771L11.2087 6.52675V10.7H12.0001V6.15987L9.30004 3.5H6.6001Z" fill="#66DDDD"/>
</svg>
