<svg width="34" height="34" viewBox="0 0 34 34" fill="none" xmlns="http://www.w3.org/2000/svg">
<path d="M17 34C26.4209 34 34 26.4209 34 17C34 7.57911 26.4209 0 17 0C7.57911 0 0 7.57911 0 17C0 26.4209 7.57911 34 17 34Z" fill="#F0B90B"/>
<path d="M10.1164 12.8659L13.5601 9.42081L16.9796 6L18.3733 7.34565L19.7427 8.71558L16.2989 12.1607L12.8552 15.6058L11.4858 14.2358L10.1164 12.8659Z" fill="white"/>
<path d="M10.1163 21.1179L15.6264 15.6058L21.1364 10.0936L22.5058 11.4636L23.8752 12.8335L18.3652 18.3456L12.8552 23.8578L11.4858 22.4879L10.1163 21.1179Z" fill="white"/>
<path d="M14.2407 25.2602L19.7548 19.7427L25.2689 14.2251L26.6345 15.6002L28 16.9754L22.4898 22.4877L16.9796 28L15.6102 26.6301L14.2407 25.2602Z" fill="white"/>
<path d="M8.73072 19.7317L7.36131 18.3619L6 16.9838L7.35723 15.6261C8.10815 14.8748 8.72623 14.2602 8.73072 14.2602C8.73521 14.2602 9.35329 14.8748 10.1042 15.6261L11.4695 16.992L10.1001 18.3619L8.73072 19.7317Z" fill="white"/>
</svg>
