<svg width="15" height="15" viewBox="0 0 15 15" fill="none" xmlns="http://www.w3.org/2000/svg">
<circle cx="7.5" cy="7.5" r="7" stroke="#5B978E"/>
<path d="M4.68397 5.80878L6.09277 4.39942L7.49166 3L8.06179 3.55049L8.622 4.11092L7.21319 5.52028L5.80439 6.92964L5.24418 6.36921L4.68397 5.80878Z" fill="#5B978E"/>
<path d="M4.68396 9.18461L6.93806 6.92964L9.19216 4.67466L9.75237 5.23509L10.3126 5.79552L8.05848 8.05049L5.80438 10.3055L5.24417 9.74504L4.68396 9.18461Z" fill="#5B978E"/>
<path d="M6.37121 10.8792L8.62698 8.622L10.8827 6.36481L11.4414 6.92737L12 7.48992L9.74583 9.74496L7.49166 12L6.93143 11.4396L6.37121 10.8792Z" fill="#5B978E"/>
<path d="M4.11711 8.61753L3.5569 8.05713L3 7.49339L3.55523 6.93794C3.86243 6.63061 4.11528 6.37916 4.11711 6.37916C4.11895 6.37916 4.3718 6.63061 4.679 6.93794L5.23754 7.49672L4.67732 8.05713L4.11711 8.61753Z" fill="#5B978E"/>
</svg>
