<svg width="15" height="15" viewBox="0 0 15 15" fill="none" xmlns="http://www.w3.org/2000/svg">
<path d="M7.5 0.5C11.3663 0.5 14.5 3.63427 14.5 7.5C14.5 11.3664 11.3664 14.5 7.5 14.5C3.63429 14.5 0.5 11.366 0.5 7.5C0.5 3.6343 3.6343 0.5 7.5 0.5Z" stroke="#5B978E"/>
<path d="M7.96739 7.9455H10.3594C10.4104 7.9455 10.4345 7.9455 10.4381 7.87865C10.4577 7.63531 10.4577 7.39056 10.4381 7.14694C10.4381 7.09963 10.4146 7.08009 10.3634 7.08009H5.60287C5.54394 7.08009 5.52808 7.09963 5.52808 7.15487V7.85514C5.52808 7.9455 5.52808 7.9455 5.62241 7.9455H7.96739V7.9455ZM10.171 6.2617C10.1778 6.24385 10.1778 6.2243 10.171 6.20674C10.1311 6.11977 10.0838 6.03677 10.0288 5.95887C9.94609 5.82573 9.84865 5.70307 9.7376 5.59288C9.68519 5.52631 9.62457 5.46653 9.55659 5.41583C9.21608 5.12603 8.81128 4.92094 8.37616 4.81783C8.15662 4.76853 7.93227 4.74502 7.70734 4.74701H5.59465C5.53573 4.74701 5.5278 4.77052 5.5278 4.82179V6.21836C5.5278 6.27728 5.5278 6.29314 5.60258 6.29314H10.1427C10.1427 6.29314 10.1821 6.28521 10.19 6.2617H10.1707H10.171ZM10.171 8.7639C10.1042 8.75653 10.0367 8.75653 9.96989 8.7639H5.60683C5.54791 8.7639 5.52808 8.7639 5.52808 8.84265V10.2081C5.52808 10.2709 5.52808 10.2868 5.60683 10.2868H7.62123C7.71754 10.2942 7.81386 10.2874 7.90819 10.2673C8.20053 10.2463 8.48806 10.1828 8.76227 10.0783C8.86199 10.0437 8.9583 9.99871 9.04923 9.9446H9.07671C9.54894 9.699 9.9325 9.31317 10.1744 8.83953C10.1744 8.83953 10.2019 8.78004 10.171 8.76446V8.7639ZM4.73745 10.9947V10.9712V10.0545V9.74376V8.81914C4.73745 8.76786 4.73745 8.76021 4.67456 8.76021H3.82076C3.77345 8.76021 3.75391 8.76021 3.75391 8.69733V7.94975H4.66663C4.71762 7.94975 4.73745 7.94975 4.73745 7.8829V7.14326C4.73745 7.09595 4.73745 7.08434 4.67456 7.08434H3.82076C3.77345 7.08434 3.75391 7.08434 3.75391 7.02145V6.32912C3.75391 6.28578 3.75391 6.27416 3.81679 6.27416H4.66266C4.72159 6.27416 4.73745 6.27416 4.73745 6.19938V4.07875C4.73745 4.01586 4.73745 4 4.8162 4H7.76683C7.98099 4.0085 8.19373 4.03201 8.40421 4.07082C8.83791 4.15099 9.25461 4.30594 9.63562 4.52718C9.8883 4.6759 10.1209 4.8555 10.328 5.0623C10.4838 5.22405 10.6243 5.39911 10.7489 5.58551C10.8727 5.77446 10.9755 5.97644 11.0563 6.18748C11.0662 6.24243 11.1189 6.27954 11.1738 6.2702H11.8781C11.9684 6.2702 11.9684 6.27019 11.9724 6.35688V7.00219C11.9724 7.06507 11.9489 7.08094 11.8857 7.08094H11.3427C11.2877 7.08094 11.2718 7.08094 11.2758 7.15176C11.2973 7.39141 11.2973 7.63192 11.2758 7.87157C11.2758 7.93842 11.2758 7.94635 11.3509 7.94635H11.9721C11.9996 7.98176 11.9721 8.01717 11.9721 8.05287C11.9761 8.09848 11.9761 8.14465 11.9721 8.19026V8.66645C11.9721 8.7333 11.9526 8.75313 11.8934 8.75313H11.1497C11.0979 8.74322 11.0475 8.77636 11.0356 8.82792C10.8585 9.28825 10.5753 9.70098 10.2093 10.0319C10.0756 10.1522 9.93505 10.2656 9.78831 10.3701C9.6308 10.4607 9.47755 10.5551 9.31608 10.6299C9.01892 10.7636 8.70732 10.8621 8.38749 10.9247C8.08382 10.9791 7.7759 11.0038 7.46684 10.9995H4.73632V10.9956L4.73745 10.9947Z" fill="#5B978E"/>
</svg>
