<svg width="16" height="15" viewBox="0 0 16 15" fill="none" xmlns="http://www.w3.org/2000/svg">
<circle cx="8" cy="7.5" r="7" stroke="#5B978E"/>
<path d="M9.82846 8.5115C9.82846 7.49996 9.2467 7.15314 8.08319 7.00865C7.25212 6.89302 7.0859 6.66183 7.0859 6.25716C7.0859 5.85248 7.36295 5.59244 7.91698 5.59244C8.41563 5.59244 8.69267 5.76585 8.83116 6.19938C8.85889 6.28608 8.942 6.34386 9.02511 6.34386H9.4683C9.57914 6.34386 9.66224 6.25716 9.66224 6.14159V6.11267C9.55141 5.47681 9.05276 4.9855 8.41563 4.92772V4.23407C8.41563 4.11844 8.33252 4.03174 8.19403 4.00281H7.77849C7.66765 4.00281 7.58455 4.08952 7.55682 4.23407V4.89879C6.72574 5.01442 6.19944 5.59244 6.19944 6.31501C6.19944 7.26877 6.75347 7.64445 7.91698 7.789C8.69267 7.93349 8.942 8.1069 8.942 8.56935C8.942 9.0318 8.55412 9.3497 8.02781 9.3497C7.3075 9.3497 7.05817 9.03173 6.97507 8.59821C6.94741 8.48265 6.8643 8.4248 6.78119 8.4248H6.3102C6.19944 8.4248 6.11633 8.5115 6.11633 8.62713V8.65606C6.2271 9.37856 6.67036 9.89879 7.58455 10.0433V10.737C7.58455 10.8526 7.66765 10.9393 7.80615 10.9682H8.22168C8.33252 10.9682 8.41563 10.8815 8.44335 10.737V10.0433C9.27443 9.89879 9.82846 9.29185 9.82846 8.5115Z" fill="#5B978E"/>
<path d="M6.58717 11.5462C4.42636 10.737 3.31823 8.22257 4.12165 5.99708C4.53719 4.7832 5.45138 3.85836 6.58717 3.42484C6.698 3.36706 6.75338 3.28035 6.75338 3.13579V2.73119C6.75338 2.61556 6.698 2.52886 6.58717 2.5C6.55944 2.5 6.50406 2.5 6.47633 2.52886C3.8446 3.39591 2.40405 6.31505 3.23512 9.0607C3.73377 10.6792 4.92501 11.922 6.47633 12.4422C6.58717 12.5 6.698 12.4422 6.72566 12.3266C6.75338 12.2977 6.75338 12.2688 6.75338 12.211V11.8064C6.75338 11.7196 6.67027 11.6041 6.58717 11.5462ZM9.52367 2.52886C9.41283 2.47107 9.302 2.52886 9.27434 2.64449C9.24662 2.67341 9.24662 2.70227 9.24662 2.76012V3.16472C9.24662 3.28035 9.32973 3.39591 9.41283 3.45376C11.5736 4.26297 12.6818 6.77743 11.8783 9.00292C11.4628 10.2168 10.5486 11.1416 9.41283 11.5752C9.302 11.6329 9.24662 11.7197 9.24662 11.8642V12.2688C9.24662 12.3844 9.302 12.4711 9.41283 12.5C9.44056 12.5 9.49594 12.5 9.52367 12.4711C12.1554 11.6041 13.596 8.68495 12.7649 5.9393C12.2662 4.29189 11.0473 3.04909 9.52367 2.52886Z" fill="#5B978E"/>
</svg>
