<svg width="34" height="34" viewBox="0 0 34 34" fill="none" xmlns="http://www.w3.org/2000/svg">
<path d="M17 34C26.4209 34 34 26.4209 34 17C34 7.57911 26.4209 0 17 0C7.57911 0 0 7.57911 0 17C0 26.4209 7.57911 34 17 34Z" fill="#2775CA"/>
<path d="M21.6754 19.6915C21.6754 17.2123 20.1879 16.3623 17.2129 16.0082C15.0879 15.7248 14.6629 15.1582 14.6629 14.1665C14.6629 13.1747 15.3713 12.5373 16.7879 12.5373C18.0629 12.5373 18.7713 12.9623 19.1254 14.0248C19.1963 14.2373 19.4088 14.379 19.6213 14.379H20.7545C21.0379 14.379 21.2504 14.1665 21.2504 13.8832V13.8123C20.967 12.254 19.692 11.0498 18.0629 10.9082V9.20823C18.0629 8.92484 17.8504 8.71234 17.4963 8.64145H16.4338C16.1504 8.64145 15.9379 8.85395 15.867 9.20823V10.8373C13.742 11.1207 12.3963 12.5373 12.3963 14.3082C12.3963 16.6457 13.8129 17.5665 16.7879 17.9207C18.7713 18.2748 19.4088 18.6998 19.4088 19.8332C19.4088 20.9666 18.417 21.7457 17.0713 21.7457C15.2295 21.7457 14.592 20.9665 14.3795 19.904C14.3088 19.6207 14.0963 19.479 13.8838 19.479H12.6795C12.3963 19.479 12.1838 19.6915 12.1838 19.9748V20.0457C12.467 21.8165 13.6004 23.0915 15.9379 23.4457V25.1457C15.9379 25.429 16.1504 25.6415 16.5045 25.7123H17.567C17.8504 25.7123 18.0629 25.4998 18.1338 25.1457V23.4457C20.2588 23.0915 21.6754 21.604 21.6754 19.6915Z" fill="white"/>
<path d="M13.3877 27.1291C7.86266 25.1458 5.02927 18.9833 7.08355 13.5291C8.14605 10.5541 10.4836 8.28744 13.3877 7.22494C13.6711 7.08333 13.8127 6.87083 13.8127 6.51655V5.52494C13.8127 5.24155 13.6711 5.02905 13.3877 4.95833C13.3168 4.95833 13.1752 4.95833 13.1043 5.02905C6.37516 7.15405 2.69177 14.3083 4.81677 21.0374C6.09177 25.0041 9.13766 28.05 13.1043 29.325C13.3877 29.4666 13.6711 29.325 13.7418 29.0416C13.8127 28.9708 13.8127 28.9 13.8127 28.7583V27.7666C13.8127 27.5541 13.6002 27.2708 13.3877 27.1291ZM20.8961 5.02905C20.6127 4.88744 20.3293 5.02905 20.2586 5.31244C20.1877 5.38333 20.1877 5.45405 20.1877 5.59583V6.58744C20.1877 6.87083 20.4002 7.15405 20.6127 7.29583C26.1377 9.27905 28.9711 15.4416 26.9168 20.8958C25.8543 23.8708 23.5168 26.1375 20.6127 27.2C20.3293 27.3416 20.1877 27.5541 20.1877 27.9083V28.9C20.1877 29.1833 20.3293 29.3958 20.6127 29.4666C20.6836 29.4666 20.8252 29.4666 20.8961 29.3958C27.6252 27.2708 31.3086 20.1166 29.1836 13.3874C27.9086 9.34994 24.7918 6.30405 20.8961 5.02905Z" fill="white"/>
</svg>
