<svg width="15" height="15" viewBox="0 0 15 15" fill="none" xmlns="http://www.w3.org/2000/svg">
<circle cx="7.5" cy="7.5" r="7" stroke="#5B978E"/>
<path d="M8.37379 7.73825V7.73711C8.32288 7.74053 8.06005 7.75539 7.4752 7.75539C7.00755 7.75539 6.67961 7.74282 6.56358 7.73711V7.73825C4.76522 7.66169 3.42384 7.36004 3.42384 6.99783C3.42384 6.63677 4.7664 6.33397 6.56358 6.25742V7.43774C6.68079 7.44574 7.01821 7.46516 7.48349 7.46516C8.04229 7.46516 8.3217 7.44231 8.37379 7.43774V6.25856C10.1686 6.33626 11.5064 6.63791 11.5064 6.99898C11.5064 7.36004 10.1674 7.66169 8.37379 7.73939V7.73825ZM8.37379 6.1363V5.08053H10.8778V3.47058H4.06079V5.08053H6.56477V6.1363C4.52962 6.22657 3 6.61506 3 7.08125C3 7.54743 4.5308 7.93592 6.56477 8.02733V11.4118H8.37497V8.02733C10.4066 7.93706 11.9338 7.54857 11.9338 7.08239C11.9338 6.61734 10.4066 6.22771 8.37497 6.13745" fill="#5B978E"/>
</svg>
