<svg width="34" height="34" viewBox="0 0 34 34" fill="none" xmlns="http://www.w3.org/2000/svg">
<path d="M17 34C26.4209 34 34 26.4209 34 17C34 7.57911 26.4209 0 17 0C7.57911 0 0 7.57911 0 17C0 26.4209 7.57911 34 17 34Z" fill="#26A07B"/>
<path d="M19.1806 18.6734V18.6708C19.0652 18.6786 18.4695 18.7122 17.1438 18.7122C16.0838 18.7122 15.3404 18.6837 15.0775 18.6708V18.6734C11.0012 18.4999 7.96071 17.8161 7.96071 16.9951C7.96071 16.1767 11.0038 15.4904 15.0775 15.3168V17.9922C15.3431 18.0104 16.1079 18.0544 17.1626 18.0544C18.4292 18.0544 19.0625 18.0026 19.1806 17.9922V15.3194C23.2488 15.4955 26.2812 16.1793 26.2812 16.9977C26.2812 17.8161 23.2462 18.4999 19.1806 18.676V18.6734ZM19.1806 15.0423V12.6492H24.8563V9H9.40445V12.6492H15.0801V15.0423C10.4671 15.2469 7 16.1275 7 17.1842C7 18.2409 10.4698 19.1214 15.0801 19.3286V27H19.1833V19.3286C23.7882 19.124 27.25 18.2435 27.25 17.1868C27.25 16.1327 23.7882 15.2495 19.1833 15.0449" fill="white"/>
</svg>
