<svg width="15" height="16" viewBox="0 0 15 16" fill="none" xmlns="http://www.w3.org/2000/svg">
<path d="M7.54004 10.1789L9.55332 13.4263L11.4131 12.3187L8.76905 8.03564L7.54004 10.1789Z" fill="#28A0F0"/>
<path d="M13.1069 11.0157L13.1055 10.1282L10.2164 5.50354L9.14453 7.37271L11.9336 12.0085L12.942 11.408C13.0409 11.3254 13.1007 11.2043 13.107 11.0735L13.1069 11.0157Z" fill="#28A0F0"/>
<path d="M1.00005 11.8529L2.42409 12.6962L7.16294 4.88568L6.35866 4.86385C5.6734 4.85388 4.93524 5.03697 4.5964 5.60539L1.90534 9.89205L1 11.3216V11.8529H1.00005Z" fill="#28A0F0"/>
<path d="M9.89819 4.88531L7.77856 4.89323L2.98291 13.0264L4.65911 14.0183L5.11495 13.2237L9.89819 4.88531Z" fill="#28A0F0"/>
<path d="M14 4.87438C13.9822 4.4188 13.7422 4.00171 13.3662 3.7589L8.09664 0.644468C7.72473 0.451984 7.2601 0.451751 6.8876 0.644329C6.84358 0.667138 1.76298 3.69541 1.76298 3.69541C1.69268 3.73004 1.62497 3.77133 1.56124 3.81816C1.22561 4.06539 1.02102 4.44952 1 4.87159V11.3216L1.90534 9.89202L1.89741 4.91521C1.8985 4.89701 1.90072 4.87913 1.90384 4.86144C1.92427 4.74432 1.98791 4.63986 2.08371 4.56929C2.10762 4.5517 7.27496 1.47771 7.2914 1.46924C7.41288 1.40654 7.56719 1.40589 7.68881 1.46733L12.8902 4.54225C13.0133 4.62278 13.0904 4.75936 13.0973 4.90864V11.0737C13.091 11.2045 13.0407 11.3256 12.9418 11.4082L11.9334 12.0087L11.4131 12.3186L9.5533 13.4262L7.66725 14.5496C7.56565 14.5873 7.44689 14.5852 7.34616 14.5431L5.1147 13.224L4.65886 14.0185L6.66421 15.2052C6.73052 15.2439 6.78963 15.2782 6.83809 15.3063C6.91319 15.3496 6.96433 15.3785 6.9824 15.3874C7.12494 15.4586 7.32999 15.5 7.51479 15.5C7.68423 15.5 7.84942 15.468 8.00578 15.4051L13.4839 12.1446C13.7983 11.8942 13.9833 11.5167 14 11.1076V4.87438Z" fill="#28A0F0"/>
</svg>
