<svg width="10" height="10" viewBox="0 0 10 10" fill="none" xmlns="http://www.w3.org/2000/svg">
<path d="M2.54402 2.37853L5 1L7.45597 2.37853L6.55305 2.8878L5 2.01853L3.44696 2.8878L2.54402 2.37853ZM7.45597 4.11707L6.55305 3.6078L5 4.47707L3.44696 3.6078L2.54402 4.11707V5.1356L4.09706 6.00492V7.74345L5 8.25267L5.90291 7.74345V6.00492L7.45597 5.1356V4.11707ZM7.45597 6.87414V5.8556L6.55305 6.36492V7.38345L7.45597 6.87414ZM8.09709 7.23414L6.54403 8.10345V9.12199L9 7.74345V4.98639L8.09709 5.4956V7.23414ZM7.19417 3.2478L8.09709 3.75707V4.7756L9 4.26639V3.2478L8.09709 2.73853L7.19417 3.2478ZM4.09706 8.47215V9.49068L5 10L5.90291 9.49068V8.47215L5 8.98147L4.09706 8.47215ZM2.54402 6.87414L3.44696 7.38345V6.36492L2.54402 5.8556V6.87414ZM4.09706 3.2478L5 3.75707L5.90291 3.2478L5 2.73853L4.09706 3.2478ZM1.90294 3.75707L2.80587 3.2478L1.90294 2.73853L1 3.2478V4.26639L1.90294 4.7756V3.75707ZM1.90294 5.4956L1 4.98639V7.74345L3.45597 9.12199V8.10345L1.90294 7.23414V5.4956Z" fill="#F3BB30"/>
</svg>
