<svg width="10" height="10" viewBox="0 0 10 10" fill="none" xmlns="http://www.w3.org/2000/svg">
<path d="M7.2217 3.4607C7.0561 3.35953 6.86289 3.35953 6.68348 3.4607L5.41385 4.24119L4.55823 4.74706L3.31619 5.52755C3.15059 5.62873 2.95738 5.62873 2.77797 5.52755L1.79815 4.90605C1.63254 4.80487 1.52214 4.61698 1.52214 4.40018V3.215C1.52214 3.02711 1.61874 2.83921 1.79815 2.70913L2.77797 2.11653C2.94358 2.01536 3.13679 2.01536 3.31619 2.11653L4.29602 2.73803C4.46162 2.8392 4.57203 3.0271 4.57203 3.2439V4.02439L5.42765 3.50407V2.69467C5.42765 2.50678 5.33104 2.31888 5.15164 2.1888L3.34379 1.07588C3.17818 0.974706 2.98497 0.974706 2.80557 1.07588L0.942512 2.21771C0.763107 2.31888 0.666504 2.50678 0.666504 2.69467V4.92051C0.666504 5.1084 0.763107 5.2963 0.942512 5.42638L2.77797 6.5393C2.94358 6.64047 3.13679 6.64047 3.31619 6.5393L4.55823 5.77326L5.41385 5.25294L6.65589 4.4869C6.82149 4.38573 7.0147 4.38573 7.19411 4.4869L8.17393 5.07949C8.33954 5.18067 8.44994 5.36856 8.44994 5.58536V6.77055C8.44994 6.95844 8.35334 7.14634 8.17393 7.27642L7.2217 7.86901C7.0561 7.97018 6.86289 7.97018 6.68348 7.86901L5.70365 7.27642C5.53805 7.17525 5.42765 6.98735 5.42765 6.77055V6.00452L4.57203 6.52484V7.30533C4.57203 7.49322 4.66863 7.68112 4.84804 7.8112L6.68348 8.92412C6.84909 9.02529 7.0423 9.02529 7.2217 8.92412L9.05716 7.8112C9.22277 7.71003 9.33317 7.52213 9.33317 7.30533V5.05058C9.33317 4.86269 9.23657 4.67479 9.05716 4.54471L7.2217 3.4607Z" fill="#8247E5"/>
</svg>
